<?xml version="1.0" encoding="UTF-8"?>
<svg xmlns="http://www.w3.org/2000/svg" id="Layer_1" data-name="Layer 1" viewBox="0 0 24 24" width="512" height="512"><path d="M11,17v3.946c0,1.368-.916,2.598-2.248,2.91-.402,.094-.821,.144-1.252,.144-2.422,0-4.515-1.556-5.233-3.835-1.408-.921-2.267-2.479-2.267-4.165,0-.886,.235-1.737,.686-2.5-.45-.763-.686-1.614-.686-2.5,0-1.568,.752-3.04,2-3.979v-.021c0-1.897,1.327-3.489,3.102-3.898,.409-1.774,2.002-3.102,3.898-3.102h.022c1.093,.003,1.978,.891,1.978,1.984v6.016h-2.277c-.346-.595-.984-1-1.723-1-1.105,0-2,.895-2,2s.895,2,2,2c.738,0,1.376-.405,1.723-1h2.277v5h-2.277c-.346-.595-.984-1-1.723-1-1.105,0-2,.895-2,2s.895,2,2,2c.738,0,1.376-.405,1.723-1h2.277Zm13-6c0-1.568-.752-3.04-2-3.979v-.021c0-1.897-1.327-3.489-3.102-3.898-.409-1.774-2.002-3.102-3.898-3.102h-.022c-1.093,.003-1.978,.891-1.978,1.984V12h3v-1.277c-.595-.346-1-.984-1-1.723,0-1.105,.895-2,2-2s2,.895,2,2c0,.738-.405,1.376-1,1.723v3.277h-5v6.946c0,1.368,.916,2.598,2.248,2.91,.402,.094,.821,.144,1.252,.144,2.422,0,4.515-1.556,5.233-3.835,1.408-.921,2.267-2.479,2.267-4.165,0-.886-.235-1.737-.686-2.5,.45-.763,.686-1.614,.686-2.5Z"/></svg>
