<svg viewBox="0 0 64 64" xml:space="preserve" xmlns="http://www.w3.org/2000/svg" enable-background="new 0 0 64 64"><path d="M-296-222.6c-12.9 0-23.4-10.5-23.4-23.4 0-12.9 10.5-23.4 23.4-23.4 12.9 0 23.4 10.5 23.4 23.4 0 12.9-10.5 23.4-23.4 23.4zm0-44.3c-11.5 0-20.9 9.4-20.9 20.9s9.4 20.9 20.9 20.9 20.9-9.4 20.9-20.9-9.4-20.9-20.9-20.9z" transform="translate(328 278)" fill="#4eec7d" class="fill-134563"></path><path d="m-298.8-235.9-11.9-12 1.8-1.8 10.1 10.2 15.7-15.7 1.8 1.8-17.5 17.5" transform="translate(328 278)" fill="#4eec7d" class="fill-134563"></path></svg>