<svg width="23" height="23" viewBox="0 0 23 23" fill="none" xmlns="http://www.w3.org/2000/svg">
<g clip-path="url(#clip0_71_8)">
<path d="M9.77659 5.25039C9.81835 6.33757 9.63532 7.42166 9.23895 8.43487C8.84258 9.44807 8.24139 10.3686 7.47301 11.1388C6.70462 11.9091 5.78555 12.5125 4.77331 12.9113C3.76106 13.3101 2.67741 13.4957 1.59014 13.4566C2.67731 13.4148 3.76141 13.5978 4.77461 13.9942C5.78781 14.3906 6.70833 14.9918 7.47857 15.7602C8.24881 16.5285 8.8522 17.4476 9.25101 18.4599C9.64982 19.4721 9.83545 20.5557 9.79631 21.643C9.75455 20.5558 9.93758 19.4718 10.3339 18.4585C10.7303 17.4453 11.3315 16.5248 12.0999 15.7546C12.8683 14.9844 13.7873 14.381 14.7996 13.9822C15.8118 13.5833 16.8955 13.3977 17.9828 13.4368C16.8956 13.4786 15.8115 13.2956 14.7983 12.8992C13.7851 12.5028 12.8646 11.9017 12.0943 11.1333C11.3241 10.3649 10.7207 9.44581 10.3219 8.43356C9.92308 7.42132 9.73745 6.33766 9.77659 5.25039Z" fill="black"/>
<path d="M18.5 16.0031C18.5127 16.3347 18.4569 16.6654 18.336 16.9744C18.2151 17.2835 18.0317 17.5642 17.7974 17.7992C17.563 18.0341 17.2827 18.2181 16.9739 18.3398C16.6652 18.4614 16.3346 18.518 16.003 18.5061C16.3346 18.4934 16.6653 18.5492 16.9743 18.6701C17.2834 18.791 17.5641 18.9744 17.7991 19.2087C18.034 19.4431 18.218 19.7234 18.3397 20.0322C18.4613 20.3409 18.518 20.6715 18.506 21.0031C18.4933 20.6715 18.5491 20.3408 18.67 20.0318C18.7909 19.7227 18.9743 19.442 19.2086 19.207C19.443 18.9721 19.7233 18.7881 20.0321 18.6664C20.3408 18.5448 20.6714 18.4881 21.003 18.5001C20.6714 18.5128 20.3407 18.457 20.0317 18.3361C19.7226 18.2152 19.4419 18.0318 19.2069 17.7975C18.972 17.5631 18.788 17.2828 18.6663 16.974C18.5447 16.6653 18.4881 16.3347 18.5 16.0031Z" fill="black"/>
<path d="M18.0961 1.50875C18.118 2.07798 18.0222 2.64559 17.8146 3.17608C17.6071 3.70657 17.2923 4.18853 16.89 4.59181C16.4877 4.9951 16.0065 5.31102 15.4765 5.51983C14.9465 5.72863 14.3792 5.82583 13.8099 5.80534C14.3791 5.78347 14.9467 5.8793 15.4772 6.08683C16.0077 6.29436 16.4897 6.60913 16.8929 7.01144C17.2962 7.41375 17.6121 7.89495 17.821 8.42495C18.0298 8.95494 18.127 9.52231 18.1065 10.0916C18.0846 9.52237 18.1804 8.95476 18.388 8.42426C18.5955 7.89377 18.9103 7.41181 19.3126 7.00853C19.7149 6.60525 20.1961 6.28933 20.7261 6.08052C21.2561 5.87171 21.8234 5.77452 22.3927 5.79501C21.8235 5.81687 21.2559 5.72104 20.7254 5.51351C20.1949 5.30598 19.7129 4.99121 19.3097 4.5889C18.9064 4.18659 18.5905 3.70539 18.3816 3.17539C18.1728 2.6454 18.0756 2.07803 18.0961 1.50875Z" fill="black"/>
</g>
<defs>
<clipPath id="clip0_71_8">
<rect width="22" height="22" fill="white" transform="translate(0.754166 0.515381) rotate(-0.0689277)"/>
</clipPath>
</defs>
</svg>
